<svg version="1.2" xmlns="http://www.w3.org/2000/svg" viewBox="0 0 850 190" width="850" height="190">
	<title>mixpitch logo 5 gradient</title>
	<style>
		.s0 { opacity: .99;fill: #000000 } 
	</style>
	<g id="Background">
		<path id="Path 0" class="s0" d="m522 115.5v50.5h27v-101h-27z"/>
		<path id="Path 1" class="s0" d="m296 66c0 0.5 3.1 5.4 6.8 10.8 3.8 5.3 11.4 16.3 17 24.4l10.2 14.8c-10.6 14.3-18.4 25.4-24.3 33.8-5.9 8.3-10.7 15.4-10.7 15.7 0 0.3 6.9 0.5 15.3 0.5l15.2 0.1 20-30.2 20 30.1c23.6 0 30.5-0.2 30.5-0.5 0-0.3-5.1-7.8-11.3-16.8-6.2-8.9-13.9-19.9-17-24.4l-5.7-8.3c27.1-38.8 35-50.2 35-50.5 0-0.3-6.7-0.5-15-0.5h-15c-18.1 27.5-20.8 30.8-21.6 29.8-0.6-0.7-5.1-7.7-10-15.6l-8.9-14.3c-24.7 0.1-30.5 0.5-30.5 1.1z"/>
		<path id="Path 2" class="s0" d="m257.8 66c-0.2 0.5-0.2 23.3-0.1 50.5l0.3 49.5h27v-101c-21.5 0-27 0.4-27.2 1z"/>
		<path id="Path 3" class="s0" d="m671 65.1c-2.5 0.5-7.4 2.3-11 4.1-3.9 1.9-8.7 5.4-12 8.7-3 3.1-6.9 8.5-8.7 12.1-1.8 3.6-3.9 9.2-4.7 12.5-0.9 3.3-1.6 9.6-1.6 14 0 4.4 0.6 10.9 1.4 14.5 0.7 3.6 2.8 9.4 4.6 13 1.9 3.6 5.6 8.8 8.7 11.8 2.9 2.8 7.9 6.5 11.1 8.1 3.1 1.5 8.2 3.4 11.2 4.2 3 0.7 9.3 1.3 14 1.3 4.9-0.1 11-0.8 14.5-1.8 3.3-1 8.2-3 10.9-4.4 2.6-1.5 7.2-5.2 10.1-8.2 3-3.1 6.5-8.1 8-11.5 1.5-3.3 2.3-6.3 1.8-6.6-0.4-0.4-6-2.3-12.3-4.4-6.3-2-11.5-3.5-11.6-3.3 0 0.2-1.2 2.4-2.7 5.1-1.7 3-4.3 5.6-6.9 7.2-2.4 1.4-6.5 2.8-9.3 3.1-3.4 0.5-6.6 0.2-10-0.9-3.3-1-6.2-2.9-8.4-5.4-1.9-2.1-4.1-5.4-5-7.3-1.1-2.4-1.5-6.8-1.6-14 0-9.4 0.3-11.1 2.8-16.2 1.9-4.2 3.9-6.5 7-8.5 3.1-2 5.8-2.8 10.7-3.1 5.1-0.4 7.4 0 10.5 1.6 2.2 1 5.4 3.5 7.1 5.3 1.6 1.9 3.3 4.4 3.7 5.7 0.4 1.2 1.2 2.2 1.7 2.2 0.5 0 5.8-1.4 11.8-3.1 5.9-1.7 11.3-3.4 12-3.7 0.9-0.5 0.4-2.5-2.2-7.7-2.3-4.8-5.3-8.7-9.3-12.5-3.3-3-7.9-6.5-10.4-7.7-2.4-1.2-7.1-2.9-10.4-3.8-3.3-0.8-9.4-1.5-13.5-1.4-4.1 0.1-9.5 0.5-12 1z"/>
		<path id="Path 4" class="s0" d="m573 53v12h-14v23h14l0.5 58.6c4.8 9.5 7.7 13.1 10.3 15.1 2.3 1.8 5.9 3.8 7.9 4.4 2.1 0.6 7.4 1.3 11.8 1.6 4.4 0.3 10.9 0 14.5-0.6 3.6-0.7 7-1.5 7.6-1.9 0.8-0.5 0.9-4.3 0.5-12l-0.6-11.3c-3.9 0.9-6.8 1.4-9 1.8-2.2 0.3-5.7 0.3-7.8-0.1-2.7-0.4-4.2-1.4-5.7-3.9-1.8-3-2-5-2-27.4v-24.3h25v-23h-25v-24h-28z"/>
		<path id="Path 5" class="s0" d="m740 98v68h27l0.5-63.5c4.2-7.6 6.4-9.7 9.5-11.3 3.6-1.9 5.7-2.3 11-2 5 0.3 7.3 0.9 9.9 2.8 1.9 1.4 4.2 4.1 5 6 1.3 2.9 1.6 9 1.8 35.8l0.3 32.2h27c0-55.4-0.4-69.9-1.1-73.3-0.6-2.8-2.2-7.3-3.5-10-1.3-2.6-4.2-6.5-6.4-8.7-2.2-2.2-5.7-4.9-7.8-5.9-2-1-6.6-2.5-10.2-3.1-3.6-0.7-9.2-1.1-12.5-0.8-3.3 0.3-8 1.4-10.5 2.5-2.5 1-6.4 3.7-8.8 5.9l-4.3 3.9 0.1-46.5h-27z"/>
		<path id="Path 6" fill-rule="evenodd" class="s0" d="m410.2 29.8l31.6 0.4c28.7 0.4 32.2 0.6 37.2 2.5 3 1.1 8 3.5 11 5.5 3 1.9 7 5.1 8.8 7.1 1.7 2 4.3 5.8 5.6 8.4 1.3 2.7 2.9 7.2 3.5 10 0.6 2.9 1.1 7.4 1.1 10 0 2.7-0.7 7.5-1.6 10.8-0.8 3.3-2.7 8.2-4.2 10.9-1.5 2.6-4.9 7-7.7 9.6-2.7 2.6-7.4 5.9-10.2 7.3-2.9 1.5-8.1 3.4-11.5 4.2-4.1 0.9-11.5 1.5-35.8 1.5v48h-28zm27.8 65.2c24.1-0.6 28.3-1 30.5-2.2 1.7-0.9 4.2-2.9 5.6-4.5 1.5-1.6 3.2-4.4 3.8-6.3 0.6-2 1.2-5.1 1.1-7 0-2-0.4-5.2-1-7.3-0.5-2-2.4-5.3-4.2-7.3q-3.3-3.6-8.3-5c-3-0.9-9.4-1.4-16.2-1.4h-11.3z"/>
		<path id="Path 7" class="s0" d="m528.3 29c-1.8 1.1-4.2 3.5-5.3 5.3-1.3 2-2 5-2 8.2 0 3.6 0.6 6 2.2 8.5 1.3 1.9 3.9 4.3 5.8 5.3 2.4 1.2 5.1 1.7 8.5 1.5 3-0.2 6.3-1.2 8.3-2.6 1.7-1.2 4-3.7 4.9-5.4 0.9-1.8 1.6-5.3 1.6-7.8 0-2.6-0.8-5.9-1.9-7.9-1-1.8-3.5-4.2-5.4-5.2-2.1-1.2-5.5-1.9-8.5-1.9-3.2 0-6.1 0.7-8.2 2z"/>
		<path id="Path 8" class="s0" d="m264 29.1c-1.9 1.1-4.1 3-4.9 4.2-0.8 1.2-1.8 3.8-2.2 5.7-0.5 2-0.4 5.2 0.2 7.5 0.6 2.2 2.1 5.1 3.2 6.3 1.2 1.3 3.4 3 5 3.8 1.5 0.8 4.6 1.4 7 1.4 2.5 0 5.8-0.9 8.1-2.3 2.1-1.2 4.7-3.8 5.7-5.7 1.1-1.9 1.9-5.3 1.9-7.5 0-2.2-0.8-5.6-1.8-7.5-0.9-1.9-3.3-4.5-5.2-5.8-2.5-1.6-4.9-2.2-8.5-2.2-3.1 0-6.3 0.8-8.5 2.1z"/>
		<path id="Path 9" class="s0" d="m101.6 14.8c-0.3 0.9-6 25.3-12.7 54.2-6.7 28.9-12.3 53.1-12.5 53.8-0.2 0.6-1.2 1.2-2.1 1.2-1-0.1-4.5-0.7-7.8-1.5-3.3-0.8-8.7-1.5-12-1.5-3.3 0-8.5 0.4-11.5 1-3 0.6-8 2.2-11 3.7-3 1.5-7.5 4.7-10 7.2-2.5 2.6-5.5 6.6-6.7 9.1-1.1 2.5-2.4 6.7-2.8 9.5-0.5 3.4-0.2 6.7 0.8 10.5 0.9 3 3.1 7.5 4.9 10 2.3 3 5.5 5.6 9.8 7.8 4.1 2.1 9.3 3.7 14 4.4 5.7 0.9 9.4 0.9 15.3 0 4.2-0.7 10.1-2.3 13-3.6 2.8-1.4 7.5-4.4 10.2-6.9 2.8-2.4 6.2-6.6 7.6-9.3 1.5-2.7 3.4-7.1 4.2-9.9 0.9-2.7 3.4-13.1 5.7-23 2.2-9.9 6.7-29.5 10-43.5 3.2-14 5.9-25.2 5.9-24.8 0.1 0.5 2.6 12.2 5.6 26.1 3 13.8 7.2 33.8 9.3 44.2l3.8 19h24.8l45.1-89.2 0.5 102.7h29v-150l-35.5-0.1c-26.2 53.2-36.3 73.7-39.4 79.8-3.1 6.2-5.7 11.2-5.8 11-0.1-0.1-1.5-7.2-3.2-15.7-1.6-8.5-5.5-28.8-8.6-45-3.1-16.2-5.8-30.3-6-31.3-0.5-1.5-2.1-1.7-15.9-1.7-13.9 0-15.5 0.2-16 1.7z"/>
	</g>
</svg>